<?xml version="1.0" standalone="no"?><!DOCTYPE svg PUBLIC "-//W3C//DTD SVG 1.1//EN" "http://www.w3.org/Graphics/SVG/1.1/DTD/svg11.dtd"><svg t="1649686323957" class="icon" viewBox="0 0 1024 1024" version="1.1" xmlns="http://www.w3.org/2000/svg" p-id="3474" xmlns:xlink="http://www.w3.org/1999/xlink" width="200" height="200"><defs><style type="text/css">@font-face { font-family: feedback-iconfont; src: url("//at.alicdn.com/t/font_1031158_u69w8yhxdu.woff2?t=1630033759944") format("woff2"), url("//at.alicdn.com/t/font_1031158_u69w8yhxdu.woff?t=1630033759944") format("woff"), url("//at.alicdn.com/t/font_1031158_u69w8yhxdu.ttf?t=1630033759944") format("truetype"); }
</style></defs><path d="M855.1 138.1H716.7V88.7c0-6.6-2.6-13-7.3-17.7-4.7-4.7-11-7.3-17.7-7.3H332.5c-13.8 0-25 11.2-25 25v49.4H169.1c-6.6 0-13 2.6-17.7 7.3s-7.3 11-7.3 17.7v772.2c0 13.8 11.2 25 25 25h686.1c6.6 0 13-2.6 17.7-7.3 4.7-4.7 7.3-11 7.3-17.7V163.1c-0.1-13.8-11.3-25-25.1-25z m-497.7-24.4h309.2v105.7H357.4V113.7zM830 910.3H193.9V188.1h113.4v56.3c0 6.6 2.6 13 7.3 17.7 4.7 4.7 11 7.3 17.7 7.3h359.2c13.8 0 25-11.2 25-25v-56.3h113.4l0.1 722.2z" p-id="3475" fill="#1296db"></path><path d="M706.6 380.7H314.3c-13.8 0-25 11.2-25 25s11.2 25 25 25h392.3c13.8 0 25-11.2 25-25s-11.2-25-25-25zM706.6 600.5H314.3c-13.8 0-25 11.2-25 25s11.2 25 25 25h392.3c13.8 0 25-11.2 25-25s-11.2-25-25-25z" p-id="3476" fill="#1296db"></path></svg>